<svg xmlns="http://www.w3.org/2000/svg" viewBox="0 0 125.19 33.24"><defs><style>.cls-1{fill:#fff;}</style></defs><title>Zasób 6</title><g id="Warstwa_2" data-name="Warstwa 2"><g id="Warstwa_1-2" data-name="Warstwa 1"><path class="cls-1" d="M125.19,30.42v.07c0,.93-1.74,1.59-1.74,1.59L89,32.65S84.7,30.37,84.52,28l.69-10.39h0s-1.39-2.51-2.65-3a81.17,81.17,0,0,0-36-4,7.27,7.27,0,0,0-6.27,7v.07l.18,10.38a4.59,4.59,0,0,1-4.27,4.53l-34.42.57-.08-.66A1.74,1.74,0,0,1,0,30.84c0-11,4.1-17.75,17.23-23.5a45.83,45.83,0,0,1,7-2.39c36.73-9.27,65.62-3.43,78,.69a25.23,25.23,0,0,0,3,.77h0c5.08,2,9.56,4.09,13.15,7.83A23.13,23.13,0,0,1,125.19,30.42Z"/></g></g></svg>