<svg id="Warstwa_1" data-name="Warstwa 1" xmlns="http://www.w3.org/2000/svg" viewBox="0 0 226.92 21.75"><defs><style>.cls-1,.cls-2{fill:#fff;}.cls-2{stroke:#fff;stroke-miterlimit:10;}</style></defs><title>logo</title><path class="cls-1" d="M497.23,424.77a4,4,0,0,0-.63-2.28,5.15,5.15,0,0,0-2-1.64,21,21,0,0,0-4.08-1.47,19.29,19.29,0,0,1-4.1-1.51,5.5,5.5,0,0,1-2-1.78,4.53,4.53,0,0,1-.63-2.45,4.4,4.4,0,0,1,1.93-3.72,8.29,8.29,0,0,1,5-1.43,8.2,8.2,0,0,1,3.63.79,5.92,5.92,0,0,1,2.5,2.21,6,6,0,0,1,.88,3.21H497a5,5,0,0,0-1.74-3.89,6.53,6.53,0,0,0-4.49-1.54,7.5,7.5,0,0,0-4.48,1.24,3.76,3.76,0,0,0-.23,6.14A14.29,14.29,0,0,0,491,418.7a15.08,15.08,0,0,1,5,2.05,4.73,4.73,0,0,1,2,4,4.6,4.6,0,0,1-.9,2.81,5.7,5.7,0,0,1-2.54,1.88,9.68,9.68,0,0,1-3.7.67,10.7,10.7,0,0,1-4.1-.76,5.58,5.58,0,0,1-3.65-5.47h.78a4.7,4.7,0,0,0,1.93,4,8.29,8.29,0,0,0,5,1.43,7.65,7.65,0,0,0,4.55-1.27A3.83,3.83,0,0,0,497.23,424.77Z" transform="translate(-483.14 -408.34)"/><path class="cls-1" d="M518.89,429.81h-.78V419.38H504.68v10.43h-.78v-21h.78v9.82h13.43v-9.82h.78Z" transform="translate(-483.14 -408.34)"/><path class="cls-1" d="M541.33,420.87a11.35,11.35,0,0,1-1,4.83,7.52,7.52,0,0,1-2.78,3.25,7.65,7.65,0,0,1-4.16,1.15,7.26,7.26,0,0,1-5.75-2.53,10.05,10.05,0,0,1-2.19-6.82v-3a11.34,11.34,0,0,1,1-4.82,7.45,7.45,0,0,1,2.79-3.26,8.08,8.08,0,0,1,8.31,0,7.56,7.56,0,0,1,2.8,3.27,11.36,11.36,0,0,1,1,4.81Zm-.78-3.18a9.17,9.17,0,0,0-1.93-6.11,7.05,7.05,0,0,0-10.42,0,9.36,9.36,0,0,0-1.93,6.23v3.08a10.69,10.69,0,0,0,.87,4.44,6.55,6.55,0,0,0,6.28,4,6.44,6.44,0,0,0,5.21-2.3,9.47,9.47,0,0,0,1.92-6.27Z" transform="translate(-483.14 -408.34)"/><path class="cls-1" d="M552.09,428.51,553,425l5-16.26h.86L563.81,425l.94,3.47,1-3.47,4.34-16.26h.85l-5.66,21h-.88l-5.22-17.53-.73-2.23-.71,2.23-5.26,17.53h-.88l-5.67-21h.86L551.13,425Z" transform="translate(-483.14 -408.34)"/><path class="cls-1" d="M584.48,420.81h-7.3v9h-.78v-21h6.7a7.4,7.4,0,0,1,5,1.64,5.58,5.58,0,0,1,1.87,4.43,5.72,5.72,0,0,1-1.34,3.76,5.66,5.66,0,0,1-3.4,2l5.62,9v.2h-.83Zm-7.3-.78h6.63a5.33,5.33,0,0,0,3.92-1.47,5,5,0,0,0,1.5-3.71,4.8,4.8,0,0,0-1.66-3.87,6.69,6.69,0,0,0-4.52-1.42h-5.87Z" transform="translate(-483.14 -408.34)"/><path class="cls-1" d="M612.49,420.87a11.35,11.35,0,0,1-1,4.83,7.45,7.45,0,0,1-2.78,3.25,7.61,7.61,0,0,1-4.15,1.15,7.26,7.26,0,0,1-5.75-2.53,10.05,10.05,0,0,1-2.2-6.82v-3a11.34,11.34,0,0,1,1-4.82,7.49,7.49,0,0,1,2.78-3.26,8.1,8.1,0,0,1,8.32,0,7.56,7.56,0,0,1,2.8,3.27,11.36,11.36,0,0,1,1,4.81Zm-.78-3.18a9.17,9.17,0,0,0-1.94-6.11,7,7,0,0,0-10.41,0,9.36,9.36,0,0,0-1.93,6.23v3.08a10.69,10.69,0,0,0,.87,4.44,6.71,6.71,0,0,0,2.49,3,6.88,6.88,0,0,0,3.79,1,6.44,6.44,0,0,0,5.21-2.3,9.47,9.47,0,0,0,1.92-6.27Z" transform="translate(-483.14 -408.34)"/><path class="cls-1" d="M634,420.87a11.35,11.35,0,0,1-1,4.83,7.52,7.52,0,0,1-2.78,3.25,7.65,7.65,0,0,1-4.16,1.15,7.26,7.26,0,0,1-5.75-2.53,10.05,10.05,0,0,1-2.2-6.82v-3a11.34,11.34,0,0,1,1-4.82,7.45,7.45,0,0,1,2.79-3.26A7.62,7.62,0,0,1,633,412.91a11.36,11.36,0,0,1,1,4.81Zm-.78-3.18a9.17,9.17,0,0,0-1.93-6.11,7.05,7.05,0,0,0-10.42,0,9.36,9.36,0,0,0-1.93,6.23v3.08a10.69,10.69,0,0,0,.87,4.44,6.55,6.55,0,0,0,6.28,4,6.44,6.44,0,0,0,5.21-2.3,9.47,9.47,0,0,0,1.92-6.27Z" transform="translate(-483.14 -408.34)"/><path class="cls-1" d="M641.66,408.78l8.64,19.89L659,408.78h1.15v21h-.78V409.94l-8.73,19.87H650L641.32,410v19.77h-.78v-21Z" transform="translate(-483.14 -408.34)"/><line class="cls-2" x1="190.33" y1="21.48" x2="190.42"/><path class="cls-1" d="M683.66,412.64a2.31,2.31,0,0,1,.79-1,2,2,0,0,1,1.15-.37,1.62,1.62,0,0,1,1.3.5,2.27,2.27,0,0,1,.43,1.5v3.55h-.27v-3.56a2,2,0,0,0-.36-1.29,1.38,1.38,0,0,0-1.12-.42,1.68,1.68,0,0,0-1.22.5,2.61,2.61,0,0,0-.7,1.29v3.48h-.27v-7.73h.27Z" transform="translate(-483.14 -408.34)"/><path class="cls-1" d="M689.24,414a3.19,3.19,0,0,1,.3-1.4,2.36,2.36,0,0,1,.85-1,2.27,2.27,0,0,1,1.24-.35,2.37,2.37,0,0,1,1.23.34,2.41,2.41,0,0,1,.85,1A3.15,3.15,0,0,1,694,414v.25a3.16,3.16,0,0,1-.29,1.4,2.3,2.3,0,0,1-.85,1,2.24,2.24,0,0,1-1.23.35,2.27,2.27,0,0,1-1.24-.35,2.34,2.34,0,0,1-.85-1,3.25,3.25,0,0,1-.31-1.38Zm.28.22a2.85,2.85,0,0,0,.27,1.24,2.19,2.19,0,0,0,.75.89,1.94,1.94,0,0,0,1.1.31,1.9,1.9,0,0,0,1.52-.7,2.69,2.69,0,0,0,.58-1.8V414a2.88,2.88,0,0,0-.27-1.24,2.16,2.16,0,0,0-.75-.88,1.88,1.88,0,0,0-1.09-.32,1.86,1.86,0,0,0-1.52.71,2.66,2.66,0,0,0-.59,1.78Z" transform="translate(-483.14 -408.34)"/><path class="cls-1" d="M699.85,416.82h-.27v-3.65a1.76,1.76,0,0,0-.36-1.22,1.43,1.43,0,0,0-1.13-.4,1.73,1.73,0,0,0-1.47.79,2.77,2.77,0,0,0-.45,1v3.44h-.27v-5.45h.27v1.29a2.29,2.29,0,0,1,.8-1,2,2,0,0,1,2.25-.06,1.45,1.45,0,0,1,.58,1,2,2,0,0,1,.78-.94,2.25,2.25,0,0,1,1.22-.35,1.63,1.63,0,0,1,1.31.5,2.22,2.22,0,0,1,.44,1.5v3.55h-.27v-3.53a2,2,0,0,0-.36-1.32,1.35,1.35,0,0,0-1.13-.42,1.91,1.91,0,0,0-1.58.79,1.63,1.63,0,0,0-.36.86Z" transform="translate(-483.14 -408.34)"/><path class="cls-1" d="M707.78,416.93a2.17,2.17,0,0,1-1.21-.36,2.38,2.38,0,0,1-.86-1,3,3,0,0,1-.32-1.38V414a3.17,3.17,0,0,1,.3-1.38,2.38,2.38,0,0,1,.84-1,2,2,0,0,1,1.15-.36,1.92,1.92,0,0,1,1.49.65,2.48,2.48,0,0,1,.58,1.71v.29h-4.09v.29a2.78,2.78,0,0,0,.28,1.23,2.24,2.24,0,0,0,.77.89,1.89,1.89,0,0,0,1.07.32,2.14,2.14,0,0,0,.93-.18,1.92,1.92,0,0,0,.69-.56l.19.13A2.06,2.06,0,0,1,707.78,416.93Zm-.1-5.38a1.76,1.76,0,0,0-1.35.59,2.49,2.49,0,0,0-.65,1.51h3.8v-.07a2.26,2.26,0,0,0-.24-1,1.78,1.78,0,0,0-.64-.74A1.62,1.62,0,0,0,707.68,411.55Z" transform="translate(-483.14 -408.34)"/><path class="cls-1" d="M683.14,426.42a3.29,3.29,0,0,1,.55-2,1.78,1.78,0,0,1,1.51-.74,2.14,2.14,0,0,1,1.08.28,2,2,0,0,1,.76.83v-3.29h.28v7.73H687v-.87a1.82,1.82,0,0,1-.76.72,2.32,2.32,0,0,1-1.1.25,1.74,1.74,0,0,1-1.49-.75,3.38,3.38,0,0,1-.55-2.06Zm.28.11a3.26,3.26,0,0,0,.46,1.83,1.48,1.48,0,0,0,1.3.67,2.12,2.12,0,0,0,1.15-.3,1.74,1.74,0,0,0,.71-.88V425.3a1.81,1.81,0,0,0-1.85-1.37,1.49,1.49,0,0,0-1.3.65A3.4,3.4,0,0,0,683.42,426.53Z" transform="translate(-483.14 -408.34)"/><path class="cls-1" d="M691.62,429.3a2.14,2.14,0,0,1-1.21-.35,2.44,2.44,0,0,1-.87-1,3,3,0,0,1-.31-1.37v-.23a3.17,3.17,0,0,1,.3-1.38,2.36,2.36,0,0,1,.83-1,2,2,0,0,1,1.16-.36,1.93,1.93,0,0,1,1.49.65,2.51,2.51,0,0,1,.58,1.71v.29H689.5v.29a2.65,2.65,0,0,0,.28,1.23,2.17,2.17,0,0,0,.77.89,1.87,1.87,0,0,0,1.07.32,2.2,2.2,0,0,0,.93-.18,1.81,1.81,0,0,0,.68-.56l.19.13A2,2,0,0,1,691.62,429.3Zm-.1-5.37a1.76,1.76,0,0,0-1.35.59,2.46,2.46,0,0,0-.65,1.51h3.79V426a2.25,2.25,0,0,0-.23-1,1.86,1.86,0,0,0-.64-.74A1.64,1.64,0,0,0,691.52,423.93Z" transform="translate(-483.14 -408.34)"/><path class="cls-1" d="M697.32,429a1.86,1.86,0,0,0,1.22-.39,1.42,1.42,0,0,0,.53-1.09h.27a1.67,1.67,0,0,1-.61,1.27,2.11,2.11,0,0,1-1.41.48,2,2,0,0,1-1.62-.74,3.09,3.09,0,0,1-.6-2v-.18a3.08,3.08,0,0,1,.6-2,2,2,0,0,1,1.61-.74,2,2,0,0,1,1.43.52,1.88,1.88,0,0,1,.6,1.38h-.27a1.6,1.6,0,0,0-.52-1.18,1.73,1.73,0,0,0-1.24-.44,1.69,1.69,0,0,0-1.42.65,2.87,2.87,0,0,0-.52,1.83v.17a2.78,2.78,0,0,0,.52,1.8A1.73,1.73,0,0,0,697.32,429Z" transform="translate(-483.14 -408.34)"/><path class="cls-1" d="M700.91,426.37a3.16,3.16,0,0,1,.3-1.4,2.36,2.36,0,0,1,.85-1,2.27,2.27,0,0,1,1.24-.35,2.37,2.37,0,0,1,1.23.34,2.41,2.41,0,0,1,.85,1,3.15,3.15,0,0,1,.3,1.39v.24a3.32,3.32,0,0,1-.29,1.41,2.3,2.3,0,0,1-.85,1,2.23,2.23,0,0,1-1.23.34,2.27,2.27,0,0,1-1.24-.34,2.34,2.34,0,0,1-.85-1,3.25,3.25,0,0,1-.31-1.38Zm.28.21a2.86,2.86,0,0,0,.27,1.25,2.09,2.09,0,0,0,.75.88,1.87,1.87,0,0,0,1.1.32,1.9,1.9,0,0,0,1.52-.7,2.7,2.7,0,0,0,.58-1.8v-.16a2.88,2.88,0,0,0-.27-1.24,2.09,2.09,0,0,0-.75-.88,2,2,0,0,0-2.61.38,2.7,2.7,0,0,0-.59,1.79Z" transform="translate(-483.14 -408.34)"/><path class="cls-1" d="M710,424l-.36,0a1.61,1.61,0,0,0-1.16.45,2.21,2.21,0,0,0-.61,1.26v3.56h-.28v-5.45h.28v1.14a1.9,1.9,0,0,1,.66-.9,1.77,1.77,0,0,1,1.11-.34,1.07,1.07,0,0,1,.39.06Z" transform="translate(-483.14 -408.34)"/></svg>